<svg width="602" height="404" viewBox="0 0 602 404" fill="none" xmlns="http://www.w3.org/2000/svg">
<path d="M164.4 4.53334C150.667 7.20001 138.933 11.3333 120.133 20.1333C104 27.7333 94.6666 33.6 94.6666 36C94.6666 37.7333 89.7333 48.2667 87.4666 51.3333C86 53.2 89.7333 51.8667 100.533 46.5333C124 34.9333 152.4 26.2667 176 23.3333L183.333 22.5333L198.667 38.9333C207.067 48 221.6 62.9333 230.8 72.2667L247.6 89.3333H301.333H355.067L371.867 72.2667C381.067 62.9333 395.6 48 404 38.9333L419.333 22.5333L426.667 23.3333C450.667 26.2667 478.4 34.8 502.267 46.6667C512.533 51.7333 516.667 53.2 515.6 51.6C514.667 50.1333 511.867 45.0667 509.333 40.2667L504.667 31.3333L488 23.0667C461.2 9.60001 436.933 2.66667 417.067 2.66667C408.4 2.66667 406.667 3.20001 394.4 9.33334L381.2 16.1333L302.267 16.4L223.333 16.6667L210 10C197.467 3.86667 196 3.46667 185.333 3.06667C179.067 2.93334 169.733 3.60001 164.4 4.53334ZM309.6 25.6L314.933 27.2L308.133 30.1333L301.467 33.2L294.667 30.2667L287.867 27.4667L292.267 25.8667C298 23.7333 303.2 23.6 309.6 25.6ZM289.2 35.7333L293.733 39.4667L287.6 48.6667C284.267 53.8667 280.8 60.2667 279.867 62.9333C278.933 65.7333 277.733 68 277.2 68C276.267 68 274.4 62.9333 272.8 56C271.2 48.6667 278.267 32 283.067 32C284 32 286.8 33.7333 289.2 35.7333ZM324.533 36.4C329.733 43.0667 331.2 52.1333 328.667 60.8C327.467 64.8 326.133 68 325.467 68C324.8 68 323.333 65.2 322 61.6C320.667 58.1333 317.067 51.8667 314.133 47.6L308.667 39.7333L313.067 35.8667C318.533 30.9333 320.4 30.9333 324.533 36.4ZM310.533 55.3333C314.933 60.1333 319.6 66 320.8 68.2667C322.933 72.2667 322.8 72.5333 319.867 74.8C314 79.3333 308.267 81.3333 301.333 81.3333C294.4 81.3333 288.667 79.3333 282.8 74.8C279.733 72.4 279.733 72.4 282 67.8667C284.4 63.3333 299.6 46.6667 301.333 46.6667C301.867 46.6667 306 50.5333 310.533 55.3333Z" fill="white"/>
<path d="M158 35.2C140.667 38.5333 130.133 41.6 113.867 48C100.8 53.2 74.2667 65.6 72.2667 67.3333C70.6667 68.8 59.2 97.8667 47.4667 130.4C10.4 232.933 -1.60001 286.4 2.53333 330.8C4.8 354.933 11.0667 370 24.5333 383.467C33.6 392.533 49.7333 401.333 59.2 402.267C67.0667 403.2 72.9333 398.8 102.4 370.133C155.067 319.067 165.067 310.533 179.867 304.4L187.333 301.333H300.133C397.333 301.333 413.733 301.6 419.733 303.333C432 307.067 444.933 317.333 486 356.667C508 377.733 528.667 396.8 531.867 398.933C536.933 402.533 538.4 402.933 543.867 402.133C558.667 400.267 579.733 385.067 588.667 370C606 340.667 604.667 289.067 584.667 219.333C574.667 184.4 544.4 98 533.867 74.6666L530.533 67.0666L514.933 59.6C483.733 44.5333 462.267 37.6 438 34.4C427.467 33.0666 425.467 33.2 421.333 35.0666C414.533 38.4 397.2 54 377.2 74.9333L359.733 93.3333H301.6H243.333L220 69.6C190.933 40 183.733 34.4 174.267 33.8666C170.4 33.6 163.2 34.2666 158 35.2ZM464.933 67.6C474.133 71.8666 477.867 85.6 472.533 94.8C464.533 108.533 445.467 108.933 437.333 95.7333C433.467 89.3333 433.733 79.3333 438 72.9333C439.867 70.2666 441.6 68 441.733 68C441.867 68 444.4 67.0666 447.333 66C453.067 64 458 64.4 464.933 67.6ZM165.333 82.5333C191.867 92.6666 200.667 129.733 182 152.533C179.067 156.133 173.333 160.933 169.333 163.2C162.533 167.067 161.067 167.333 149.333 167.333C138.267 167.333 135.733 166.8 128.667 163.6C118.933 159.067 111.6 152.267 106.933 143.333C103.733 137.467 103.333 135.2 103.333 124.667C103.467 114.267 103.867 111.733 107.2 105.6C113.733 92.9333 123.867 83.8666 136 79.8666C141.467 78 157.467 79.4666 165.333 82.5333ZM425.067 107.6C430.533 111.6 433.467 116.4 434.267 122.4C435.733 133.6 425.733 145.333 414.533 145.333C412.133 145.333 407.6 144.133 404.4 142.533C389.2 135.2 390.133 113.2 406 105.867C411.2 103.467 420.667 104.267 425.067 107.6ZM505.333 107.067C519.467 114.533 519.6 132.8 505.467 142.267C498.133 147.2 488.267 146 481.067 139.067C468.267 126.8 477.467 104.267 495.467 104C497.733 104 502.133 105.333 505.333 107.067ZM262.667 111.333C271.6 116 273.6 126.667 266.8 133.467C263.6 136.667 261.733 137.333 256.667 137.333C251.6 137.333 249.733 136.667 246.533 133.467C240.267 127.067 241.733 116.8 249.6 112C254.8 108.8 257.6 108.667 262.667 111.333ZM353.067 112C360.933 116.8 362.4 127.067 356.133 133.467C352.933 136.667 351.067 137.333 346 137.333C335.2 137.333 329.333 128.533 333.333 118.133C334.8 114.267 341.867 109.333 346 109.333C347.467 109.333 350.667 110.533 353.067 112ZM463.867 146.4C476.533 152.8 478.933 169.333 468.8 179.467C456.667 191.6 434.667 182.533 434.667 165.333C434.667 149.2 450 139.2 463.867 146.4ZM397.867 174.533C413.733 182.133 421.733 195.733 421.733 215.333C421.867 228.933 417.867 238 407.467 247.733C398.533 256.267 389.333 259.333 375.333 258.4C358.933 257.333 345.333 249.2 338.267 236.267C333.067 226.667 331.467 217.733 333.333 208.4C340 176.267 369.333 160.933 397.867 174.533ZM231.733 176.8C234.533 177.6 234.667 178.267 234.667 192.8V208H250C267.733 208 267.067 207.333 266.4 223.333L266 232.667L250.4 233.067L234.8 233.467L234.4 249.067L234 264.667L226 265.067C211.6 265.867 212 266.267 212 248.667V233.333H195.333H178.8L177.867 228.533C176.933 223.733 177.867 211.733 179.333 209.333C179.733 208.533 186.667 208 194.8 208H209.333V192.8C209.333 178 209.467 177.467 212.4 176.933C217.067 176 228.4 176 231.733 176.8Z" fill="white"/>
<path d="M133.6 83.7333C128.933 85.4667 124.133 88.6667 119.867 92.8C98.4 114 101.733 146.4 126.8 160C134.933 164.4 136 164.667 148.667 164.667C164.533 164.667 169.6 162.533 178.933 152.133C192.933 136.533 192.933 112.933 178.933 95.2C170.267 84.1333 148 78.6667 133.6 83.7333ZM162.133 95.3334C169.733 98.6667 174.933 104.533 178 113.2C183.2 128.267 176.267 145.6 162.133 152.933C150.933 158.667 132.267 155.2 123.867 145.733C112.8 133.067 112.667 117.6 123.467 103.067C132.267 91.3333 146.667 88.4 162.133 95.3334Z" fill="white"/>
<path d="M362.8 174.133C354.267 177.333 342.667 189.467 338.933 199.2C334.533 210.533 334.933 222.4 339.867 232.667C344.267 242 348.533 246.267 358.667 251.467C365.2 254.933 367.333 255.333 378.667 255.333C390.133 255.333 392 254.933 398.4 251.333C414.133 242.8 422.4 224 418.667 205.867C416.667 196.267 414.533 192.133 408.267 185.067C398.533 174.267 376.8 169.067 362.8 174.133ZM391.467 185.333C402.667 190.133 409.2 200.8 409.333 214.267C409.333 223.467 407.867 227.6 402.267 235.067C391.067 249.6 368.133 250.133 354.533 236.133C344.133 225.333 342.667 211.867 350.4 198.267C358.933 183.2 374.933 178.133 391.467 185.333Z" fill="white"/>
</svg>
